<svg xmlns="http://www.w3.org/2000/svg" width="74.75" height="52.9" viewBox="0 0 74.75 52.9"><defs><style>.cls-1{fill:#ffd2d2;}.cls-2{fill:#2d2d2d;}.cls-3{fill:#f63547;}</style></defs><g id="Calque_2" data-name="Calque 2"><g id="Calque_1-2" data-name="Calque 1"><circle class="cls-1" cx="51.18" cy="29.33" r="23.57"/><path class="cls-2" d="M45.32,48.89l-5.5-7.34.22-.24A20,20,0,0,0,25.59,7.42h-.05A20,20,0,0,0,11.08,41.31l.22.24L5.8,48.89A1.46,1.46,0,0,0,6.1,51a1.43,1.43,0,0,0,1.1.28,1.39,1.39,0,0,0,1-.58l5.38-7.16.3.22a19.82,19.82,0,0,0,23.45,0l.3-.22L43,50.65A1.47,1.47,0,0,0,45,51a1.49,1.49,0,0,0,.58-1A1.47,1.47,0,0,0,45.32,48.89ZM25.56,44.58a17.1,17.1,0,1,1,17.11-17.1A17.15,17.15,0,0,1,25.56,44.58Z"/><path class="cls-3" d="M15.14,2.61A8.79,8.79,0,0,0,8.93.08H8.81A8.81,8.81,0,0,0,2.55,2.77a8.85,8.85,0,0,0,0,12.43,1.47,1.47,0,0,0,2.08,0L15.14,4.69A1.46,1.46,0,0,0,15.14,2.61ZM3.7,12l-.23-.48a6,6,0,0,1,7.94-7.94l.49.23Z"/><path class="cls-3" d="M48.58,2.6A8.93,8.93,0,0,0,36,2.6a1.51,1.51,0,0,0,0,2.09l10.51,10.5a1.47,1.47,0,0,0,2.09,0A8.91,8.91,0,0,0,48.58,2.6Zm-.92,8.87-.23.48-8.2-8.19.49-.23a6.1,6.1,0,0,1,6.77,1.16A6,6,0,0,1,47.66,11.47Z"/><path class="cls-3" d="M25.56,14.85a1.47,1.47,0,0,0-1.47,1.48V27l-5.28,7a1.48,1.48,0,0,0,2.36,1.78l5.58-7.44a1.45,1.45,0,0,0,.29-.88V16.33A1.48,1.48,0,0,0,25.56,14.85Z"/></g></g></svg>