<svg xmlns="http://www.w3.org/2000/svg" width="63.89" height="51" viewBox="0 0 63.89 51"><defs><style>.cls-1{fill:#ffd2d2;}.cls-2{fill:#2d2d2d;}.cls-3{fill:#f63547;}</style></defs><g id="Calque_2" data-name="Calque 2"><g id="Calque_1-2" data-name="Calque 1"><circle class="cls-1" cx="40.31" cy="23.57" r="23.57"/><path class="cls-2" d="M27.87.7a1.1,1.1,0,0,0-.8-.34H5.63A5.63,5.63,0,0,0,0,6V45.37A5.64,5.64,0,0,0,5.63,51H34.69a5.63,5.63,0,0,0,5.62-5.63V13.84a1.1,1.1,0,0,0-.32-.79Zm.19,3.4,8.36,8.52H30.31a2.25,2.25,0,0,1-2.25-2.25Zm6.63,44.64H5.63a3.37,3.37,0,0,1-3.38-3.37V6A3.37,3.37,0,0,1,5.63,2.61H25.81v7.76a4.51,4.51,0,0,0,4.5,4.5h7.75v30.5a3.37,3.37,0,0,1-3.37,3.37Z"/><path class="cls-3" d="M28,25.65,23.31,25l-2.06-4.19a1.13,1.13,0,0,0-2,0L17.17,25l-4.64.68a1.14,1.14,0,0,0-.91.78,1.1,1.1,0,0,0,.3,1.15l3.37,3.2-.8,4.63a1.12,1.12,0,0,0,1.63,1.19l4.12-2.17,4.12,2.17A1.12,1.12,0,0,0,26,35.41l-.8-4.63,3.37-3.2a1.1,1.1,0,0,0,.3-1.15,1.14,1.14,0,0,0-.91-.78Zm-4.74,3.91a1.13,1.13,0,0,0-.34,1l.52,3-2.63-1.38a1.14,1.14,0,0,0-1.05,0l-2.62,1.38.52-3a1.13,1.13,0,0,0-.34-1l-2.13-2,2.94-.43a1.16,1.16,0,0,0,.85-.62l1.31-2.66,1.31,2.66a1.16,1.16,0,0,0,.85.62l2.94.43Z"/><path class="cls-2" d="M26.91,40.31H13.41a1.13,1.13,0,1,0,0,2.25h13.5a1.13,1.13,0,0,0,0-2.25Z"/></g></g></svg>