<svg xmlns="http://www.w3.org/2000/svg" width="31.74" height="31.74" viewBox="0 0 31.74 31.74"><defs><style>.cls-1{fill:#fff;}.cls-2{fill:#f41c0d;}</style></defs><g id="Calque_2" data-name="Calque 2"><g id="Calque_1-2" data-name="Calque 1"><circle class="cls-1" cx="15.87" cy="15.87" r="15.87"/><path class="cls-2" d="M19.65,11.29H12.09A2.69,2.69,0,0,0,9.4,14v3.78a2.68,2.68,0,0,0,2.69,2.69h7.56a2.68,2.68,0,0,0,2.69-2.69V14A2.69,2.69,0,0,0,19.65,11.29Zm-1.81,4.76L14.3,17.74a.14.14,0,0,1-.21-.13V14.13A.14.14,0,0,1,14.3,14l3.54,1.79A.14.14,0,0,1,17.84,16.05Z"/></g></g></svg>