<svg xmlns="http://www.w3.org/2000/svg" width="74.59" height="50.64" viewBox="0 0 74.59 50.64"><defs><style>.cls-1{fill:#ffd2d2;}.cls-2{fill:#2d2d2d;}.cls-3{fill:#f63547;}</style></defs><g id="Calque_2" data-name="Calque 2"><g id="Calque_1-2" data-name="Calque 1"><circle class="cls-1" cx="51.02" cy="27.07" r="23.57"/><path class="cls-2" d="M50.71,24.91l-5-11.44a6.69,6.69,0,0,0-6.09-4.11H36.49a1.3,1.3,0,0,0,0,2.6h3.16a4.22,4.22,0,0,1,3.84,2.59l4.31,9.92h-11a1.24,1.24,0,0,0-1.12.76l-2.14,4.86a4.22,4.22,0,0,1-3.83,2.57h-8.6a4.24,4.24,0,0,1-3.83-2.57l-2.13-4.86A1.24,1.24,0,0,0,14,24.47H3.38L8.59,14.29A4.2,4.2,0,0,1,12.31,12h2.22a1.3,1.3,0,0,0,0-2.6H12.31a6.63,6.63,0,0,0-5.89,3.7l-6,11.77a1.37,1.37,0,0,0-.38.94V38a9.69,9.69,0,0,0,9.42,9.9H41.6A9.69,9.69,0,0,0,51,38v-12a.17.17,0,0,0,0-.07.15.15,0,0,0,0-.07,1.35,1.35,0,0,0-.31-.86ZM48.54,38a7.14,7.14,0,0,1-6.94,7.3H9.42A7.14,7.14,0,0,1,2.48,38V27.07H13.22L15,31.18a6.68,6.68,0,0,0,6.07,4.08h8.6a6.7,6.7,0,0,0,6.08-4.08l1.8-4.11h11V38Z"/><path class="cls-3" d="M18,15.92l6.78,5.76a1.19,1.19,0,0,0,1.56,0L33,15.91a1.36,1.36,0,0,0,.17-1.83,1.22,1.22,0,0,0-1.75-.18l-4.64,4V1.3a1.24,1.24,0,1,0-2.48,0V18l-4.76-4a1.19,1.19,0,0,0-1.73.2A1.35,1.35,0,0,0,18,15.92Z"/></g></g></svg>